# MagicaVoxel @ Ephtracy

# group
g BigBatteryPickUp

# material
mtllib BigBatteryPickUp.mtl
usemtl palette

# normals
vn -1 0 0
vn 1 0 0
vn 0 0 1
vn 0 0 -1
vn 0 -1 0
vn 0 1 0

# texcoords
vt 0.255859 0.5
vt 0.537109 0.5
vt 0.990234 0.5
vt 0.994141 0.5

# verts
v -12 13 6
v -12 13 2
v -12 13 -0
v -12 13 -4
v -12 17 6
v -12 17 2
v -12 17 -0
v -12 17 -4
v -11 11 7
v -11 11 -5
v -11 12 8
v -11 12 7
v -11 12 -5
v -11 12 -6
v -11 13 6
v -11 13 2
v -11 13 -0
v -11 13 -4
v -11 17 6
v -11 17 2
v -11 17 -0
v -11 17 -4
v -11 18 8
v -11 18 7
v -11 18 -5
v -11 18 -6
v -11 19 7
v -11 19 -5
v -9 9 8
v -9 9 -6
v -9 11 10
v -9 11 8
v -9 11 7
v -9 11 -5
v -9 11 -6
v -9 11 -8
v -9 12 8
v -9 12 7
v -9 12 -5
v -9 12 -6
v -9 18 8
v -9 18 7
v -9 18 -5
v -9 18 -6
v -9 19 10
v -9 19 8
v -9 19 7
v -9 19 -5
v -9 19 -6
v -9 19 -8
v -9 21 8
v -9 21 -6
v -8 9 9
v -8 9 8
v -8 9 -6
v -8 9 -7
v -8 10 10
v -8 10 9
v -8 10 -7
v -8 10 -8
v -8 11 10
v -8 11 8
v -8 11 -6
v -8 11 -8
v -8 19 10
v -8 19 8
v -8 19 -6
v -8 19 -8
v -8 20 10
v -8 20 9
v -8 20 -7
v -8 20 -8
v -8 21 9
v -8 21 8
v -8 21 -6
v -8 21 -7
v 11 9 9
v 11 9 8
v 11 9 -6
v 11 9 -7
v 11 10 10
v 11 10 9
v 11 10 -7
v 11 10 -8
v 11 11 10
v 11 11 8
v 11 11 -6
v 11 11 -8
v 11 19 10
v 11 19 8
v 11 19 -6
v 11 19 -8
v 11 20 10
v 11 20 9
v 11 20 -7
v 11 20 -8
v 11 21 9
v 11 21 8
v 11 21 -6
v 11 21 -7
v 12 9 8
v 12 9 -6
v 12 11 10
v 12 11 8
v 12 11 -6
v 12 11 -8
v 12 19 10
v 12 19 8
v 12 19 -6
v 12 19 -8
v 12 21 8
v 12 21 -6
v -9 11 10
v -9 19 10
v -8 10 10
v -8 11 10
v -8 19 10
v -8 20 10
v -5 10 10
v -5 20 10
v 11 10 10
v 11 11 10
v 11 19 10
v 11 20 10
v 12 11 10
v 12 19 10
v -8 9 9
v -8 10 9
v -8 20 9
v -8 21 9
v -5 9 9
v -5 10 9
v -5 20 9
v -5 21 9
v 11 9 9
v 11 10 9
v 11 20 9
v 11 21 9
v -11 12 8
v -11 18 8
v -9 9 8
v -9 11 8
v -9 12 8
v -9 18 8
v -9 19 8
v -9 21 8
v -8 9 8
v -8 11 8
v -8 19 8
v -8 21 8
v 11 9 8
v 11 11 8
v 11 19 8
v 11 21 8
v 12 9 8
v 12 11 8
v 12 19 8
v 12 21 8
v -11 11 7
v -11 12 7
v -11 18 7
v -11 19 7
v -9 11 7
v -9 12 7
v -9 18 7
v -9 19 7
v -12 13 6
v -12 17 6
v -11 13 6
v -11 17 6
v -12 13 -0
v -12 17 -0
v -11 13 -0
v -11 17 -0
v -12 13 2
v -12 17 2
v -11 13 2
v -11 17 2
v -12 13 -4
v -12 17 -4
v -11 13 -4
v -11 17 -4
v -11 11 -5
v -11 12 -5
v -11 18 -5
v -11 19 -5
v -9 11 -5
v -9 12 -5
v -9 18 -5
v -9 19 -5
v -11 12 -6
v -11 18 -6
v -9 9 -6
v -9 11 -6
v -9 12 -6
v -9 18 -6
v -9 19 -6
v -9 21 -6
v -8 9 -6
v -8 11 -6
v -8 19 -6
v -8 21 -6
v 11 9 -6
v 11 11 -6
v 11 19 -6
v 11 21 -6
v 12 9 -6
v 12 11 -6
v 12 19 -6
v 12 21 -6
v -8 9 -7
v -8 10 -7
v -8 20 -7
v -8 21 -7
v -5 9 -7
v -5 10 -7
v -5 20 -7
v -5 21 -7
v 11 9 -7
v 11 10 -7
v 11 20 -7
v 11 21 -7
v -9 11 -8
v -9 19 -8
v -8 10 -8
v -8 11 -8
v -8 19 -8
v -8 20 -8
v -5 10 -8
v -5 20 -8
v 11 10 -8
v 11 11 -8
v 11 19 -8
v 11 20 -8
v 12 11 -8
v 12 19 -8
v -8 9 9
v -5 9 9
v 11 9 9
v -9 9 8
v -8 9 8
v 11 9 8
v 12 9 8
v 2 9 6
v 3 9 6
v 3 9 5
v 4 9 5
v -4 9 4
v -2 9 4
v 4 9 4
v 5 9 4
v -2 9 3
v 0 9 3
v 5 9 3
v 6 9 3
v -4 9 2
v -3 9 2
v 0 9 2
v 2 9 2
v 6 9 2
v 7 9 2
v -3 9 1
v -2 9 1
v 7 9 1
v 8 9 1
v -2 9 -0
v -1 9 -0
v 4 9 -0
v 5 9 -0
v 8 9 -0
v 9 9 -0
v -1 9 -1
v 0 9 -1
v 5 9 -1
v 7 9 -1
v 9 9 -1
v 10 9 -1
v 0 9 -2
v 1 9 -2
v 7 9 -2
v 8 9 -2
v 1 9 -3
v 2 9 -3
v 8 9 -3
v 10 9 -3
v 2 9 -4
v 4 9 -4
v -9 9 -6
v -8 9 -6
v 11 9 -6
v 12 9 -6
v -8 9 -7
v -5 9 -7
v 11 9 -7
v -8 10 10
v -5 10 10
v 11 10 10
v -8 10 9
v -5 10 9
v 11 10 9
v -8 10 -7
v -5 10 -7
v 11 10 -7
v -8 10 -8
v -5 10 -8
v 11 10 -8
v -9 11 10
v -8 11 10
v 11 11 10
v 12 11 10
v -9 11 8
v -8 11 8
v 11 11 8
v 12 11 8
v -11 11 7
v -9 11 7
v -11 11 -5
v -9 11 -5
v -9 11 -6
v -8 11 -6
v 11 11 -6
v 12 11 -6
v -9 11 -8
v -8 11 -8
v 11 11 -8
v 12 11 -8
v -11 12 8
v -9 12 8
v -11 12 7
v -9 12 7
v -11 12 -5
v -9 12 -5
v -11 12 -6
v -9 12 -6
v -12 13 6
v -11 13 6
v -12 13 2
v -11 13 2
v -12 13 -0
v -11 13 -0
v -12 13 -4
v -11 13 -4
v -12 17 6
v -11 17 6
v -12 17 2
v -11 17 2
v -12 17 -0
v -11 17 -0
v -12 17 -4
v -11 17 -4
v -11 18 8
v -9 18 8
v -11 18 7
v -9 18 7
v -11 18 -5
v -9 18 -5
v -11 18 -6
v -9 18 -6
v -9 19 10
v -8 19 10
v 11 19 10
v 12 19 10
v -9 19 8
v -8 19 8
v 11 19 8
v 12 19 8
v -11 19 7
v -9 19 7
v -11 19 -5
v -9 19 -5
v -9 19 -6
v -8 19 -6
v 11 19 -6
v 12 19 -6
v -9 19 -8
v -8 19 -8
v 11 19 -8
v 12 19 -8
v -8 20 10
v -5 20 10
v 11 20 10
v -8 20 9
v -5 20 9
v 11 20 9
v -8 20 -7
v -5 20 -7
v 11 20 -7
v -8 20 -8
v -5 20 -8
v 11 20 -8
v -8 21 9
v -5 21 9
v 11 21 9
v -9 21 8
v -8 21 8
v 11 21 8
v 12 21 8
v 2 21 6
v 4 21 6
v 1 21 5
v 2 21 5
v 8 21 5
v 10 21 5
v 0 21 4
v 1 21 4
v 7 21 4
v 8 21 4
v -1 21 3
v 0 21 3
v 5 21 3
v 7 21 3
v 9 21 3
v 10 21 3
v -2 21 2
v -1 21 2
v 4 21 2
v 5 21 2
v 8 21 2
v 9 21 2
v -3 21 1
v -2 21 1
v 7 21 1
v 8 21 1
v -4 21 -0
v -3 21 -0
v 0 21 -0
v 2 21 -0
v 6 21 -0
v 7 21 -0
v -2 21 -1
v 0 21 -1
v 5 21 -1
v 6 21 -1
v -4 21 -2
v -2 21 -2
v 4 21 -2
v 5 21 -2
v 3 21 -3
v 4 21 -3
v 2 21 -4
v 3 21 -4
v -9 21 -6
v -8 21 -6
v 11 21 -6
v 12 21 -6
v -8 21 -7
v -5 21 -7
v 11 21 -7

# faces
f 5/1/1 2/1/1 1/1/1
f 6/1/1 2/1/1 5/1/1
f 7/1/1 4/1/1 3/1/1
f 8/1/1 4/1/1 7/1/1
f 12/2/1 10/2/1 9/2/1
f 13/2/1 10/2/1 12/2/1
f 15/2/1 12/2/1 11/2/1
f 15/2/1 14/2/1 13/2/1
f 15/2/1 13/2/1 12/2/1
f 16/2/1 14/2/1 15/2/1
f 17/2/1 14/2/1 16/2/1
f 18/2/1 14/2/1 17/2/1
f 19/2/1 15/2/1 11/2/1
f 20/2/1 17/2/1 16/2/1
f 21/2/1 17/2/1 20/2/1
f 22/2/1 14/2/1 18/2/1
f 23/2/1 21/2/1 20/2/1
f 23/2/1 22/2/1 21/2/1
f 23/2/1 19/2/1 11/2/1
f 23/2/1 20/2/1 19/2/1
f 24/2/1 22/2/1 23/2/1
f 25/2/1 14/2/1 22/2/1
f 25/2/1 22/2/1 24/2/1
f 26/2/1 14/2/1 25/2/1
f 27/2/1 25/2/1 24/2/1
f 28/2/1 25/2/1 27/2/1
f 32/4/1 30/4/1 29/4/1
f 33/4/1 30/4/1 32/4/1
f 34/4/1 30/4/1 33/4/1
f 35/4/1 30/4/1 34/4/1
f 37/4/1 32/4/1 31/4/1
f 37/4/1 33/4/1 32/4/1
f 38/4/1 33/4/1 37/4/1
f 39/4/1 36/4/1 35/4/1
f 39/4/1 35/4/1 34/4/1
f 40/4/1 36/4/1 39/4/1
f 41/4/1 37/4/1 31/4/1
f 44/4/1 36/4/1 40/4/1
f 45/4/1 42/4/1 41/4/1
f 45/4/1 41/4/1 31/4/1
f 46/4/1 42/4/1 45/4/1
f 47/4/1 42/4/1 46/4/1
f 48/4/1 44/4/1 43/4/1
f 49/4/1 36/4/1 44/4/1
f 49/4/1 44/4/1 48/4/1
f 50/4/1 36/4/1 49/4/1
f 51/4/1 47/4/1 46/4/1
f 51/4/1 48/4/1 47/4/1
f 51/4/1 49/4/1 48/4/1
f 52/4/1 49/4/1 51/4/1
f 58/4/1 54/4/1 53/4/1
f 59/4/1 56/4/1 55/4/1
f 61/4/1 58/4/1 57/4/1
f 62/4/1 54/4/1 58/4/1
f 62/4/1 58/4/1 61/4/1
f 63/4/1 60/4/1 59/4/1
f 63/4/1 59/4/1 55/4/1
f 64/4/1 60/4/1 63/4/1
f 69/4/1 66/4/1 65/4/1
f 70/4/1 66/4/1 69/4/1
f 71/4/1 68/4/1 67/4/1
f 72/4/1 68/4/1 71/4/1
f 73/4/1 66/4/1 70/4/1
f 74/4/1 66/4/1 73/4/1
f 75/4/1 71/4/1 67/4/1
f 76/4/1 71/4/1 75/4/1
f 77/3/2 78/3/2 82/3/2
f 79/3/2 80/3/2 83/3/2
f 81/3/2 82/3/2 85/3/2
f 82/3/2 78/3/2 86/3/2
f 85/3/2 82/3/2 86/3/2
f 83/3/2 84/3/2 87/3/2
f 79/3/2 83/3/2 87/3/2
f 87/3/2 84/3/2 88/3/2
f 89/3/2 90/3/2 93/3/2
f 93/3/2 90/3/2 94/3/2
f 91/3/2 92/3/2 95/3/2
f 95/3/2 92/3/2 96/3/2
f 94/3/2 90/3/2 97/3/2
f 97/3/2 90/3/2 98/3/2
f 91/3/2 95/3/2 99/3/2
f 99/3/2 95/3/2 100/3/2
f 101/3/2 102/3/2 104/3/2
f 104/3/2 102/3/2 105/3/2
f 103/3/2 104/3/2 107/3/2
f 105/3/2 106/3/2 107/3/2
f 104/3/2 105/3/2 107/3/2
f 107/3/2 106/3/2 108/3/2
f 108/3/2 106/3/2 109/3/2
f 109/3/2 106/3/2 110/3/2
f 108/3/2 109/3/2 111/3/2
f 111/3/2 109/3/2 112/3/2
f 116/4/3 114/4/3 113/4/3
f 117/4/3 114/4/3 116/4/3
f 119/4/3 116/4/3 115/4/3
f 119/4/3 118/4/3 117/4/3
f 119/4/3 117/4/3 116/4/3
f 120/4/3 118/4/3 119/4/3
f 121/3/3 120/3/3 119/3/3
f 122/3/3 120/3/3 121/3/3
f 123/3/3 120/3/3 122/3/3
f 124/3/3 120/3/3 123/3/3
f 125/3/3 123/3/3 122/3/3
f 126/3/3 123/3/3 125/3/3
f 131/4/3 128/4/3 127/4/3
f 132/4/3 128/4/3 131/4/3
f 133/4/3 130/4/3 129/4/3
f 134/4/3 130/4/3 133/4/3
f 135/3/3 132/3/3 131/3/3
f 136/3/3 132/3/3 135/3/3
f 137/3/3 134/3/3 133/3/3
f 138/3/3 134/3/3 137/3/3
f 143/2/3 140/2/3 139/2/3
f 144/2/3 140/2/3 143/2/3
f 147/4/3 142/4/3 141/4/3
f 148/4/3 142/4/3 147/4/3
f 149/4/3 146/4/3 145/4/3
f 150/4/3 146/4/3 149/4/3
f 155/3/3 152/3/3 151/3/3
f 156/3/3 152/3/3 155/3/3
f 157/3/3 154/3/3 153/3/3
f 158/3/3 154/3/3 157/3/3
f 163/2/3 160/2/3 159/2/3
f 164/2/3 160/2/3 163/2/3
f 165/2/3 162/2/3 161/2/3
f 166/2/3 162/2/3 165/2/3
f 169/1/3 168/1/3 167/1/3
f 170/1/3 168/1/3 169/1/3
f 173/1/3 172/1/3 171/1/3
f 174/1/3 172/1/3 173/1/3
f 175/1/4 176/1/4 177/1/4
f 177/1/4 176/1/4 178/1/4
f 179/1/4 180/1/4 181/1/4
f 181/1/4 180/1/4 182/1/4
f 183/2/4 184/2/4 187/2/4
f 187/2/4 184/2/4 188/2/4
f 185/2/4 186/2/4 189/2/4
f 189/2/4 186/2/4 190/2/4
f 191/2/4 192/2/4 195/2/4
f 195/2/4 192/2/4 196/2/4
f 193/4/4 194/4/4 199/4/4
f 199/4/4 194/4/4 200/4/4
f 197/4/4 198/4/4 201/4/4
f 201/4/4 198/4/4 202/4/4
f 203/3/4 204/3/4 207/3/4
f 207/3/4 204/3/4 208/3/4
f 205/3/4 206/3/4 209/3/4
f 209/3/4 206/3/4 210/3/4
f 211/4/4 212/4/4 215/4/4
f 215/4/4 212/4/4 216/4/4
f 213/4/4 214/4/4 217/4/4
f 217/4/4 214/4/4 218/4/4
f 215/3/4 216/3/4 219/3/4
f 219/3/4 216/3/4 220/3/4
f 217/3/4 218/3/4 221/3/4
f 221/3/4 218/3/4 222/3/4
f 223/4/4 224/4/4 226/4/4
f 226/4/4 224/4/4 227/4/4
f 225/4/4 226/4/4 229/4/4
f 227/4/4 228/4/4 229/4/4
f 226/4/4 227/4/4 229/4/4
f 229/4/4 228/4/4 230/4/4
f 229/3/4 230/3/4 231/3/4
f 231/3/4 230/3/4 232/3/4
f 232/3/4 230/3/4 233/3/4
f 233/3/4 230/3/4 234/3/4
f 232/3/4 233/3/4 235/3/4
f 235/3/4 233/3/4 236/3/4
f 241/4/5 238/4/5 237/4/5
f 242/3/5 239/3/5 238/3/5
f 244/3/5 242/3/5 238/3/5
f 244/3/5 243/3/5 242/3/5
f 245/3/5 243/3/5 244/3/5
f 246/4/5 245/4/5 244/4/5
f 246/3/5 243/3/5 245/3/5
f 247/3/5 243/3/5 246/3/5
f 248/3/5 244/3/5 238/3/5
f 249/3/5 244/3/5 248/3/5
f 250/3/5 243/3/5 247/3/5
f 250/4/5 247/4/5 246/4/5
f 251/3/5 243/3/5 250/3/5
f 252/3/5 244/3/5 249/3/5
f 252/4/5 249/4/5 248/4/5
f 253/3/5 244/3/5 252/3/5
f 254/3/5 243/3/5 251/3/5
f 254/4/5 251/4/5 250/4/5
f 255/3/5 243/3/5 254/3/5
f 256/4/5 253/4/5 252/4/5
f 256/3/5 248/3/5 238/3/5
f 256/4/5 252/4/5 248/4/5
f 257/4/5 253/4/5 256/4/5
f 258/3/5 244/3/5 253/3/5
f 258/4/5 253/4/5 257/4/5
f 259/4/5 246/4/5 244/4/5
f 259/3/5 244/3/5 258/3/5
f 259/4/5 255/4/5 254/4/5
f 259/4/5 250/4/5 246/4/5
f 259/4/5 254/4/5 250/4/5
f 260/3/5 243/3/5 255/3/5
f 260/4/5 255/4/5 259/4/5
f 261/3/5 243/3/5 260/3/5
f 262/3/5 257/3/5 256/3/5
f 262/4/5 258/4/5 257/4/5
f 262/4/5 261/4/5 260/4/5
f 262/4/5 260/4/5 259/4/5
f 262/4/5 259/4/5 258/4/5
f 263/4/5 261/4/5 262/4/5
f 264/3/5 243/3/5 261/3/5
f 264/4/5 261/4/5 263/4/5
f 265/3/5 243/3/5 264/3/5
f 266/3/5 263/3/5 262/3/5
f 266/4/5 264/4/5 263/4/5
f 266/4/5 265/4/5 264/4/5
f 267/4/5 265/4/5 266/4/5
f 268/4/5 265/4/5 267/4/5
f 269/4/5 265/4/5 268/4/5
f 270/3/5 243/3/5 265/3/5
f 270/4/5 265/4/5 269/4/5
f 271/3/5 243/3/5 270/3/5
f 272/3/5 267/3/5 266/3/5
f 272/4/5 268/4/5 267/4/5
f 273/4/5 268/4/5 272/4/5
f 274/3/5 269/3/5 268/3/5
f 274/4/5 271/4/5 270/4/5
f 274/4/5 270/4/5 269/4/5
f 275/4/5 271/4/5 274/4/5
f 276/3/5 243/3/5 271/3/5
f 276/4/5 271/4/5 275/4/5
f 277/3/5 243/3/5 276/3/5
f 278/4/5 268/4/5 273/4/5
f 278/3/5 273/3/5 272/3/5
f 279/4/5 268/4/5 278/4/5
f 280/3/5 275/3/5 274/3/5
f 280/4/5 277/4/5 276/4/5
f 280/4/5 276/4/5 275/4/5
f 281/4/5 277/4/5 280/4/5
f 282/4/5 268/4/5 279/4/5
f 282/3/5 279/3/5 278/3/5
f 283/4/5 268/4/5 282/4/5
f 284/4/5 277/4/5 281/4/5
f 284/3/5 281/3/5 280/3/5
f 285/3/5 243/3/5 277/3/5
f 285/4/5 277/4/5 284/4/5
f 286/4/5 268/4/5 283/4/5
f 286/3/5 283/3/5 282/3/5
f 287/3/5 284/3/5 280/3/5
f 287/4/5 268/4/5 286/4/5
f 287/3/5 285/3/5 284/3/5
f 287/3/5 274/3/5 268/3/5
f 287/3/5 280/3/5 274/3/5
f 288/4/5 241/4/5 240/4/5
f 289/4/5 238/4/5 241/4/5
f 289/4/5 241/4/5 288/4/5
f 290/3/5 285/3/5 287/3/5
f 290/3/5 243/3/5 285/3/5
f 290/3/5 287/3/5 286/3/5
f 291/3/5 243/3/5 290/3/5
f 292/4/5 238/4/5 289/4/5
f 293/3/5 286/3/5 282/3/5
f 293/4/5 238/4/5 292/4/5
f 293/3/5 256/3/5 238/3/5
f 293/3/5 278/3/5 272/3/5
f 293/3/5 272/3/5 266/3/5
f 293/3/5 282/3/5 278/3/5
f 293/3/5 290/3/5 286/3/5
f 293/3/5 266/3/5 262/3/5
f 293/3/5 262/3/5 256/3/5
f 294/3/5 290/3/5 293/3/5
f 298/4/5 296/4/5 295/4/5
f 299/3/5 297/3/5 296/3/5
f 299/4/5 296/4/5 298/4/5
f 300/3/5 297/3/5 299/3/5
f 304/4/5 302/4/5 301/4/5
f 305/3/5 303/3/5 302/3/5
f 305/4/5 302/4/5 304/4/5
f 306/3/5 303/3/5 305/3/5
f 311/4/5 308/4/5 307/4/5
f 312/4/5 308/4/5 311/4/5
f 313/3/5 310/3/5 309/3/5
f 314/3/5 310/3/5 313/3/5
f 317/2/5 316/2/5 315/2/5
f 318/2/5 316/2/5 317/2/5
f 323/4/5 320/4/5 319/4/5
f 324/4/5 320/4/5 323/4/5
f 325/3/5 322/3/5 321/3/5
f 326/3/5 322/3/5 325/3/5
f 329/2/5 328/2/5 327/2/5
f 330/2/5 328/2/5 329/2/5
f 333/2/5 332/2/5 331/2/5
f 334/2/5 332/2/5 333/2/5
f 337/1/5 336/1/5 335/1/5
f 338/1/5 336/1/5 337/1/5
f 341/1/5 340/1/5 339/1/5
f 342/1/5 340/1/5 341/1/5
f 343/1/6 344/1/6 345/1/6
f 345/1/6 344/1/6 346/1/6
f 347/1/6 348/1/6 349/1/6
f 349/1/6 348/1/6 350/1/6
f 351/2/6 352/2/6 353/2/6
f 353/2/6 352/2/6 354/2/6
f 355/2/6 356/2/6 357/2/6
f 357/2/6 356/2/6 358/2/6
f 359/4/6 360/4/6 363/4/6
f 363/4/6 360/4/6 364/4/6
f 361/3/6 362/3/6 365/3/6
f 365/3/6 362/3/6 366/3/6
f 367/2/6 368/2/6 369/2/6
f 369/2/6 368/2/6 370/2/6
f 371/4/6 372/4/6 375/4/6
f 375/4/6 372/4/6 376/4/6
f 373/3/6 374/3/6 377/3/6
f 377/3/6 374/3/6 378/3/6
f 379/4/6 380/4/6 382/4/6
f 380/3/6 381/3/6 383/3/6
f 382/4/6 380/4/6 383/4/6
f 383/3/6 381/3/6 384/3/6
f 385/4/6 386/4/6 388/4/6
f 386/3/6 387/3/6 389/3/6
f 388/4/6 386/4/6 389/4/6
f 389/3/6 387/3/6 390/3/6
f 391/4/6 392/4/6 395/4/6
f 392/3/6 393/3/6 396/3/6
f 392/3/6 396/3/6 398/3/6
f 396/3/6 397/3/6 398/3/6
f 398/3/6 397/3/6 399/3/6
f 392/3/6 398/3/6 400/3/6
f 398/4/6 399/4/6 401/4/6
f 400/3/6 398/3/6 401/3/6
f 399/3/6 397/3/6 402/3/6
f 402/3/6 397/3/6 403/3/6
f 392/3/6 400/3/6 404/3/6
f 400/4/6 401/4/6 405/4/6
f 404/3/6 400/3/6 405/3/6
f 399/3/6 402/3/6 406/3/6
f 402/4/6 403/4/6 407/4/6
f 406/3/6 402/3/6 407/3/6
f 392/3/6 404/3/6 408/3/6
f 404/4/6 405/4/6 409/4/6
f 408/3/6 404/3/6 409/3/6
f 399/3/6 406/3/6 410/3/6
f 406/4/6 407/4/6 411/4/6
f 410/3/6 406/3/6 411/3/6
f 407/4/6 403/4/6 412/4/6
f 411/4/6 407/4/6 412/4/6
f 403/3/6 397/3/6 413/3/6
f 412/4/6 403/4/6 413/4/6
f 392/3/6 408/3/6 414/3/6
f 408/4/6 409/4/6 415/4/6
f 414/3/6 408/3/6 415/3/6
f 401/4/6 399/4/6 416/4/6
f 415/4/6 409/4/6 416/4/6
f 405/4/6 401/4/6 416/4/6
f 409/4/6 405/4/6 416/4/6
f 399/3/6 410/3/6 416/3/6
f 411/4/6 412/4/6 417/4/6
f 416/3/6 410/3/6 417/3/6
f 410/4/6 411/4/6 417/4/6
f 417/4/6 412/4/6 418/4/6
f 412/3/6 413/3/6 419/3/6
f 418/4/6 412/4/6 419/4/6
f 392/3/6 414/3/6 420/3/6
f 414/4/6 415/4/6 421/4/6
f 420/3/6 414/3/6 421/3/6
f 415/4/6 416/4/6 421/4/6
f 417/4/6 418/4/6 421/4/6
f 416/4/6 417/4/6 421/4/6
f 421/4/6 418/4/6 422/4/6
f 418/3/6 419/3/6 423/3/6
f 422/4/6 418/4/6 423/4/6
f 392/3/6 420/3/6 424/3/6
f 421/4/6 422/4/6 425/4/6
f 424/3/6 420/3/6 425/3/6
f 420/4/6 421/4/6 425/4/6
f 425/4/6 422/4/6 426/4/6
f 426/4/6 422/4/6 427/4/6
f 427/4/6 422/4/6 428/4/6
f 422/3/6 423/3/6 429/3/6
f 428/4/6 422/4/6 429/4/6
f 424/4/6 425/4/6 430/4/6
f 425/4/6 426/4/6 430/4/6
f 426/3/6 427/3/6 431/3/6
f 430/4/6 426/4/6 431/4/6
f 427/4/6 428/4/6 432/4/6
f 428/3/6 429/3/6 433/3/6
f 432/4/6 428/4/6 433/4/6
f 392/3/6 424/3/6 434/3/6
f 424/4/6 430/4/6 434/4/6
f 430/3/6 431/3/6 435/3/6
f 434/4/6 430/4/6 435/4/6
f 427/4/6 432/4/6 436/4/6
f 432/3/6 433/3/6 437/3/6
f 436/4/6 432/4/6 437/4/6
f 427/4/6 436/4/6 438/4/6
f 436/3/6 437/3/6 439/3/6
f 438/4/6 436/4/6 439/4/6
f 431/3/6 427/3/6 440/3/6
f 435/3/6 431/3/6 440/3/6
f 434/3/6 435/3/6 440/3/6
f 427/4/6 438/4/6 440/4/6
f 438/3/6 439/3/6 441/3/6
f 440/4/6 438/4/6 441/4/6
f 394/4/6 395/4/6 442/4/6
f 395/4/6 392/4/6 443/4/6
f 442/4/6 395/4/6 443/4/6
f 441/3/6 439/3/6 444/3/6
f 423/3/6 419/3/6 444/3/6
f 433/3/6 429/3/6 444/3/6
f 440/3/6 441/3/6 444/3/6
f 413/3/6 397/3/6 444/3/6
f 437/3/6 433/3/6 444/3/6
f 419/3/6 413/3/6 444/3/6
f 429/3/6 423/3/6 444/3/6
f 439/3/6 437/3/6 444/3/6
f 444/3/6 397/3/6 445/3/6
f 443/4/6 392/4/6 446/4/6
f 440/3/6 444/3/6 447/3/6
f 446/4/6 392/4/6 447/4/6
f 392/3/6 434/3/6 447/3/6
f 434/3/6 440/3/6 447/3/6
f 447/3/6 444/3/6 448/3/6
